<svg class="main-svg" xmlns="http://www.w3.org/2000/svg" xmlns:xlink="http://www.w3.org/1999/xlink" width="1000" height="600" viewBox="0 0 1000 600"><rect x="0" y="0" width="1000" height="600" style="fill: rgb(0, 0, 0); fill-opacity: 0;"/><defs id="defs-4c8ab8"><g class="clips"><clipPath id="clip4c8ab8xyplot" class="plotclip"><rect width="658" height="420"/></clipPath><clipPath class="axesclip" id="clip4c8ab8x"><rect x="80" y="0" width="658" height="600"/></clipPath><clipPath class="axesclip" id="clip4c8ab8y"><rect x="0" y="100" width="1000" height="420"/></clipPath><clipPath class="axesclip" id="clip4c8ab8xy"><rect x="80" y="100" width="658" height="420"/></clipPath></g><g class="gradients"/></defs><g class="bglayer"><rect class="bg" x="80" y="100" width="658" height="420" style="fill: rgb(0, 0, 0); fill-opacity: 0; stroke-width: 0;"/></g><g class="layer-below"><g class="imagelayer"/><g class="shapelayer"/></g><g class="cartesianlayer"><g class="subplot xy"><g class="layer-subplot"><g class="shapelayer"/><g class="imagelayer"/></g><g class="gridlayer"><g class="x"><path class="xgrid crisp" transform="translate(124.39,0)" d="M0,100v420" style="stroke: rgb(22, 77, 128); stroke-opacity: 1; stroke-width: 1px;"/><path class="xgrid crisp" transform="translate(268.71000000000004,0)" d="M0,100v420" style="stroke: rgb(22, 77, 128); stroke-opacity: 1; stroke-width: 1px;"/><path class="xgrid crisp" transform="translate(412.94,0)" d="M0,100v420" style="stroke: rgb(22, 77, 128); stroke-opacity: 1; stroke-width: 1px;"/><path class="xgrid crisp" transform="translate(557.1800000000001,0)" d="M0,100v420" style="stroke: rgb(22, 77, 128); stroke-opacity: 1; stroke-width: 1px;"/><path class="xgrid crisp" transform="translate(701.41,0)" d="M0,100v420" style="stroke: rgb(22, 77, 128); stroke-opacity: 1; stroke-width: 1px;"/></g><g class="y"><path class="ygrid crisp" transform="translate(0,500)" d="M80,0h658" style="stroke: rgb(22, 77, 128); stroke-opacity: 1; stroke-width: 1px;"/><path class="ygrid crisp" transform="translate(0,480)" d="M80,0h658" style="stroke: rgb(22, 77, 128); stroke-opacity: 1; stroke-width: 1px;"/><path class="ygrid crisp" transform="translate(0,460)" d="M80,0h658" style="stroke: rgb(22, 77, 128); stroke-opacity: 1; stroke-width: 1px;"/><path class="ygrid crisp" transform="translate(0,440)" d="M80,0h658" style="stroke: rgb(22, 77, 128); stroke-opacity: 1; stroke-width: 1px;"/><path class="ygrid crisp" transform="translate(0,420)" d="M80,0h658" style="stroke: rgb(22, 77, 128); stroke-opacity: 1; stroke-width: 1px;"/><path class="ygrid crisp" transform="translate(0,400)" d="M80,0h658" style="stroke: rgb(22, 77, 128); stroke-opacity: 1; stroke-width: 1px;"/><path class="ygrid crisp" transform="translate(0,380)" d="M80,0h658" style="stroke: rgb(22, 77, 128); stroke-opacity: 1; stroke-width: 1px;"/><path class="ygrid crisp" transform="translate(0,360)" d="M80,0h658" style="stroke: rgb(22, 77, 128); stroke-opacity: 1; stroke-width: 1px;"/><path class="ygrid crisp" transform="translate(0,340)" d="M80,0h658" style="stroke: rgb(22, 77, 128); stroke-opacity: 1; stroke-width: 1px;"/><path class="ygrid crisp" transform="translate(0,320)" d="M80,0h658" style="stroke: rgb(22, 77, 128); stroke-opacity: 1; stroke-width: 1px;"/><path class="ygrid crisp" transform="translate(0,300)" d="M80,0h658" style="stroke: rgb(22, 77, 128); stroke-opacity: 1; stroke-width: 1px;"/><path class="ygrid crisp" transform="translate(0,280)" d="M80,0h658" style="stroke: rgb(22, 77, 128); stroke-opacity: 1; stroke-width: 1px;"/><path class="ygrid crisp" transform="translate(0,260)" d="M80,0h658" style="stroke: rgb(22, 77, 128); stroke-opacity: 1; stroke-width: 1px;"/><path class="ygrid crisp" transform="translate(0,240)" d="M80,0h658" style="stroke: rgb(22, 77, 128); stroke-opacity: 1; stroke-width: 1px;"/><path class="ygrid crisp" transform="translate(0,220)" d="M80,0h658" style="stroke: rgb(22, 77, 128); stroke-opacity: 1; stroke-width: 1px;"/><path class="ygrid crisp" transform="translate(0,200)" d="M80,0h658" style="stroke: rgb(22, 77, 128); stroke-opacity: 1; stroke-width: 1px;"/><path class="ygrid crisp" transform="translate(0,180)" d="M80,0h658" style="stroke: rgb(22, 77, 128); stroke-opacity: 1; stroke-width: 1px;"/><path class="ygrid crisp" transform="translate(0,160)" d="M80,0h658" style="stroke: rgb(22, 77, 128); stroke-opacity: 1; stroke-width: 1px;"/><path class="ygrid crisp" transform="translate(0,140)" d="M80,0h658" style="stroke: rgb(22, 77, 128); stroke-opacity: 1; stroke-width: 1px;"/></g></g><g class="zerolinelayer"/><path class="xlines-below"/><path class="ylines-below"/><g class="overlines-below"/><g class="xaxislayer-below"/><g class="yaxislayer-below"/><g class="overaxes-below"/><g class="plot" transform="translate(80, 100)" clip-path="url(#clip4c8ab8xyplot)"><g class="scatterlayer mlayer"><g class="trace scatter trace817f4307-af07-4ee2-a3fe-b76dcf1cb0b4" style="stroke-miterlimit: 2; opacity: 1;"><g class="fills"/><g class="errorbars"/><g class="lines"><path class="js-line" d="M575.84,400L621.35,400" style="vector-effect: non-scaling-stroke; fill: none; stroke: rgb(0, 0, 0); stroke-opacity: 0; stroke-width: 2px; opacity: 1;"/></g><g class="points"><path class="point" transform="translate(575.84,400)" d="M3,0A3,3 0 1,1 0,-3A3,3 0 0,1 3,0Z" style="opacity: 1; stroke-width: 0px; fill: rgb(0, 0, 0); fill-opacity: 0;"/><path class="point" transform="translate(621.35,400)" d="M3,0A3,3 0 1,1 0,-3A3,3 0 0,1 3,0Z" style="opacity: 1; stroke-width: 0px; fill: rgb(0, 0, 0); fill-opacity: 0;"/></g><g class="text"/></g><g class="trace scatter tracea79e267a-e9df-4c3f-8887-061f5027b650" style="stroke-miterlimit: 2; opacity: 1;"><g class="fills"/><g class="errorbars"/><g class="lines"><path class="js-line" d="M551.9,380L621.35,380" style="vector-effect: non-scaling-stroke; fill: none; stroke: rgb(0, 0, 0); stroke-opacity: 0; stroke-width: 2px; opacity: 1;"/></g><g class="points"><path class="point" transform="translate(551.9,380)" d="M3,0A3,3 0 1,1 0,-3A3,3 0 0,1 3,0Z" style="opacity: 1; stroke-width: 0px; fill: rgb(0, 0, 0); fill-opacity: 0;"/><path class="point" transform="translate(621.35,380)" d="M3,0A3,3 0 1,1 0,-3A3,3 0 0,1 3,0Z" style="opacity: 1; stroke-width: 0px; fill: rgb(0, 0, 0); fill-opacity: 0;"/></g><g class="text"/></g><g class="trace scatter tracefee5dff8-fa62-40b6-aba8-22d5977e75dc" style="stroke-miterlimit: 2; opacity: 1;"><g class="fills"/><g class="errorbars"/><g class="lines"><path class="js-line" d="M549.53,360L621.35,360" style="vector-effect: non-scaling-stroke; fill: none; stroke: rgb(0, 0, 0); stroke-opacity: 0; stroke-width: 2px; opacity: 1;"/></g><g class="points"><path class="point" transform="translate(549.53,360)" d="M3,0A3,3 0 1,1 0,-3A3,3 0 0,1 3,0Z" style="opacity: 1; stroke-width: 0px; fill: rgb(0, 0, 0); fill-opacity: 0;"/><path class="point" transform="translate(621.35,360)" d="M3,0A3,3 0 1,1 0,-3A3,3 0 0,1 3,0Z" style="opacity: 1; stroke-width: 0px; fill: rgb(0, 0, 0); fill-opacity: 0;"/></g><g class="text"/></g><g class="trace scatter trace68ddfd67-f195-46a8-880d-1e8bd9eaac72" style="stroke-miterlimit: 2; opacity: 1;"><g class="fills"/><g class="errorbars"/><g class="lines"><path class="js-line" d="M548.58,340L621.35,340" style="vector-effect: non-scaling-stroke; fill: none; stroke: rgb(0, 0, 0); stroke-opacity: 0; stroke-width: 2px; opacity: 1;"/></g><g class="points"><path class="point" transform="translate(548.58,340)" d="M3,0A3,3 0 1,1 0,-3A3,3 0 0,1 3,0Z" style="opacity: 1; stroke-width: 0px; fill: rgb(0, 0, 0); fill-opacity: 0;"/><path class="point" transform="translate(621.35,340)" d="M3,0A3,3 0 1,1 0,-3A3,3 0 0,1 3,0Z" style="opacity: 1; stroke-width: 0px; fill: rgb(0, 0, 0); fill-opacity: 0;"/></g><g class="text"/></g><g class="trace scatter trace8999aa2e-ad81-4fbc-8d52-81bece0452a0" style="stroke-miterlimit: 2; opacity: 1;"><g class="fills"/><g class="errorbars"/><g class="lines"><path class="js-line" d="M526.78,320L621.35,320" style="vector-effect: non-scaling-stroke; fill: none; stroke: rgb(0, 0, 0); stroke-opacity: 0; stroke-width: 2px; opacity: 1;"/></g><g class="points"><path class="point" transform="translate(526.78,320)" d="M3,0A3,3 0 1,1 0,-3A3,3 0 0,1 3,0Z" style="opacity: 1; stroke-width: 0px; fill: rgb(0, 0, 0); fill-opacity: 0;"/><path class="point" transform="translate(621.35,320)" d="M3,0A3,3 0 1,1 0,-3A3,3 0 0,1 3,0Z" style="opacity: 1; stroke-width: 0px; fill: rgb(0, 0, 0); fill-opacity: 0;"/></g><g class="text"/></g><g class="trace scatter traced467cee2-75fc-4e9c-8384-2380f8d308e2" style="stroke-miterlimit: 2; opacity: 1;"><g class="fills"/><g class="errorbars"/><g class="lines"><path class="js-line" d="M521.49,300L621.35,300" style="vector-effect: non-scaling-stroke; fill: none; stroke: rgb(0, 0, 0); stroke-opacity: 0; stroke-width: 2px; opacity: 1;"/></g><g class="points"><path class="point" transform="translate(521.49,300)" d="M3,0A3,3 0 1,1 0,-3A3,3 0 0,1 3,0Z" style="opacity: 1; stroke-width: 0px; fill: rgb(0, 0, 0); fill-opacity: 0;"/><path class="point" transform="translate(621.35,300)" d="M3,0A3,3 0 1,1 0,-3A3,3 0 0,1 3,0Z" style="opacity: 1; stroke-width: 0px; fill: rgb(0, 0, 0); fill-opacity: 0;"/></g><g class="text"/></g><g class="trace scatter tracebb5d85b4-5a21-44f2-94c3-ee1e3e2e1f69" style="stroke-miterlimit: 2; opacity: 1;"><g class="fills"/><g class="errorbars"/><g class="lines"><path class="js-line" d="M520.15,280L525.14,280" style="vector-effect: non-scaling-stroke; fill: none; stroke: rgb(0, 0, 0); stroke-opacity: 0; stroke-width: 2px; opacity: 1;"/></g><g class="points"><path class="point" transform="translate(520.15,280)" d="M3,0A3,3 0 1,1 0,-3A3,3 0 0,1 3,0Z" style="opacity: 1; stroke-width: 0px; fill: rgb(0, 0, 0); fill-opacity: 0;"/><path class="point" transform="translate(525.14,280)" d="M3,0A3,3 0 1,1 0,-3A3,3 0 0,1 3,0Z" style="opacity: 1; stroke-width: 0px; fill: rgb(0, 0, 0); fill-opacity: 0;"/></g><g class="text"/></g><g class="trace scatter tracee10d9b33-8c16-4a5a-95d5-a4910ef2d345" style="stroke-miterlimit: 2; opacity: 1;"><g class="fills"/><g class="errorbars"/><g class="lines"><path class="js-line" d="M495.11,260L496.23,260" style="vector-effect: non-scaling-stroke; fill: none; stroke: rgb(0, 0, 0); stroke-opacity: 0; stroke-width: 2px; opacity: 1;"/></g><g class="points"><path class="point" transform="translate(495.11,260)" d="M3,0A3,3 0 1,1 0,-3A3,3 0 0,1 3,0Z" style="opacity: 1; stroke-width: 0px; fill: rgb(0, 0, 0); fill-opacity: 0;"/><path class="point" transform="translate(496.23,260)" d="M3,0A3,3 0 1,1 0,-3A3,3 0 0,1 3,0Z" style="opacity: 1; stroke-width: 0px; fill: rgb(0, 0, 0); fill-opacity: 0;"/></g><g class="text"/></g><g class="trace scatter trace33160aa1-c5e2-4a80-a01d-23305823dbc9" style="stroke-miterlimit: 2; opacity: 1;"><g class="fills"/><g class="errorbars"/><g class="lines"><path class="js-line" d="M493.84,240L498.28,240" style="vector-effect: non-scaling-stroke; fill: none; stroke: rgb(0, 0, 0); stroke-opacity: 0; stroke-width: 2px; opacity: 1;"/></g><g class="points"><path class="point" transform="translate(493.84,240)" d="M3,0A3,3 0 1,1 0,-3A3,3 0 0,1 3,0Z" style="opacity: 1; stroke-width: 0px; fill: rgb(0, 0, 0); fill-opacity: 0;"/><path class="point" transform="translate(498.28,240)" d="M3,0A3,3 0 1,1 0,-3A3,3 0 0,1 3,0Z" style="opacity: 1; stroke-width: 0px; fill: rgb(0, 0, 0); fill-opacity: 0;"/></g><g class="text"/></g><g class="trace scatter trace6a6c3c56-e259-4037-b6a0-a7a2d1a3655c" style="stroke-miterlimit: 2; opacity: 1;"><g class="fills"/><g class="errorbars"/><g class="lines"><path class="js-line" d="M467.22,220L558,220" style="vector-effect: non-scaling-stroke; fill: none; stroke: rgb(0, 0, 0); stroke-opacity: 0; stroke-width: 2px; opacity: 1;"/></g><g class="points"><path class="point" transform="translate(467.22,220)" d="M3,0A3,3 0 1,1 0,-3A3,3 0 0,1 3,0Z" style="opacity: 1; stroke-width: 0px; fill: rgb(0, 0, 0); fill-opacity: 0;"/><path class="point" transform="translate(558,220)" d="M3,0A3,3 0 1,1 0,-3A3,3 0 0,1 3,0Z" style="opacity: 1; stroke-width: 0px; fill: rgb(0, 0, 0); fill-opacity: 0;"/></g><g class="text"/></g><g class="trace scatter trace59407528-dac4-4882-8e06-03a84520af80" style="stroke-miterlimit: 2; opacity: 1;"><g class="fills"/><g class="errorbars"/><g class="lines"><path class="js-line" d="M460.27,200L557.52,200" style="vector-effect: non-scaling-stroke; fill: none; stroke: rgb(0, 0, 0); stroke-opacity: 0; stroke-width: 2px; opacity: 1;"/></g><g class="points"><path class="point" transform="translate(460.27,200)" d="M3,0A3,3 0 1,1 0,-3A3,3 0 0,1 3,0Z" style="opacity: 1; stroke-width: 0px; fill: rgb(0, 0, 0); fill-opacity: 0;"/><path class="point" transform="translate(557.52,200)" d="M3,0A3,3 0 1,1 0,-3A3,3 0 0,1 3,0Z" style="opacity: 1; stroke-width: 0px; fill: rgb(0, 0, 0); fill-opacity: 0;"/></g><g class="text"/></g><g class="trace scatter trace9e7f1cba-a94a-4413-83cc-907ad5b9615d" style="stroke-miterlimit: 2; opacity: 1;"><g class="fills"/><g class="errorbars"/><g class="lines"><path class="js-line" d="M440.53,180L621.35,180" style="vector-effect: non-scaling-stroke; fill: none; stroke: rgb(0, 0, 0); stroke-opacity: 0; stroke-width: 2px; opacity: 1;"/></g><g class="points"><path class="point" transform="translate(440.53,180)" d="M3,0A3,3 0 1,1 0,-3A3,3 0 0,1 3,0Z" style="opacity: 1; stroke-width: 0px; fill: rgb(0, 0, 0); fill-opacity: 0;"/><path class="point" transform="translate(621.35,180)" d="M3,0A3,3 0 1,1 0,-3A3,3 0 0,1 3,0Z" style="opacity: 1; stroke-width: 0px; fill: rgb(0, 0, 0); fill-opacity: 0;"/></g><g class="text"/></g><g class="trace scatter tracefdee6946-bf8b-4c01-b580-c66ec1c18eee" style="stroke-miterlimit: 2; opacity: 1;"><g class="fills"/><g class="errorbars"/><g class="lines"><path class="js-line" d="M421.8,160L575.53,160" style="vector-effect: non-scaling-stroke; fill: none; stroke: rgb(0, 0, 0); stroke-opacity: 0; stroke-width: 2px; opacity: 1;"/></g><g class="points"><path class="point" transform="translate(421.8,160)" d="M3,0A3,3 0 1,1 0,-3A3,3 0 0,1 3,0Z" style="opacity: 1; stroke-width: 0px; fill: rgb(0, 0, 0); fill-opacity: 0;"/><path class="point" transform="translate(575.53,160)" d="M3,0A3,3 0 1,1 0,-3A3,3 0 0,1 3,0Z" style="opacity: 1; stroke-width: 0px; fill: rgb(0, 0, 0); fill-opacity: 0;"/></g><g class="text"/></g><g class="trace scatter trace8ae5d174-ad23-4d54-a5ed-e7385ef4748b" style="stroke-miterlimit: 2; opacity: 1;"><g class="fills"/><g class="errorbars"/><g class="lines"><path class="js-line" d="M420.54,140L450.73,140" style="vector-effect: non-scaling-stroke; fill: none; stroke: rgb(0, 0, 0); stroke-opacity: 0; stroke-width: 2px; opacity: 1;"/></g><g class="points"><path class="point" transform="translate(420.54,140)" d="M3,0A3,3 0 1,1 0,-3A3,3 0 0,1 3,0Z" style="opacity: 1; stroke-width: 0px; fill: rgb(0, 0, 0); fill-opacity: 0;"/><path class="point" transform="translate(450.73,140)" d="M3,0A3,3 0 1,1 0,-3A3,3 0 0,1 3,0Z" style="opacity: 1; stroke-width: 0px; fill: rgb(0, 0, 0); fill-opacity: 0;"/></g><g class="text"/></g><g class="trace scatter trace878ab07f-7e57-4b61-ad42-1a1ed0de0f28" style="stroke-miterlimit: 2; opacity: 1;"><g class="fills"/><g class="errorbars"/><g class="lines"><path class="js-line" d="M261.46,120L293.3,120" style="vector-effect: non-scaling-stroke; fill: none; stroke: rgb(0, 0, 0); stroke-opacity: 0; stroke-width: 2px; opacity: 1;"/></g><g class="points"><path class="point" transform="translate(261.46,120)" d="M3,0A3,3 0 1,1 0,-3A3,3 0 0,1 3,0Z" style="opacity: 1; stroke-width: 0px; fill: rgb(0, 0, 0); fill-opacity: 0;"/><path class="point" transform="translate(293.3,120)" d="M3,0A3,3 0 1,1 0,-3A3,3 0 0,1 3,0Z" style="opacity: 1; stroke-width: 0px; fill: rgb(0, 0, 0); fill-opacity: 0;"/></g><g class="text"/></g><g class="trace scatter trace054d76d5-a71a-4b24-8ea4-878c2b32bff8" style="stroke-miterlimit: 2; opacity: 1;"><g class="fills"/><g class="errorbars"/><g class="lines"><path class="js-line" d="M209.56,100L314.15,100" style="vector-effect: non-scaling-stroke; fill: none; stroke: rgb(0, 0, 0); stroke-opacity: 0; stroke-width: 2px; opacity: 1;"/></g><g class="points"><path class="point" transform="translate(209.56,100)" d="M3,0A3,3 0 1,1 0,-3A3,3 0 0,1 3,0Z" style="opacity: 1; stroke-width: 0px; fill: rgb(0, 0, 0); fill-opacity: 0;"/><path class="point" transform="translate(314.15,100)" d="M3,0A3,3 0 1,1 0,-3A3,3 0 0,1 3,0Z" style="opacity: 1; stroke-width: 0px; fill: rgb(0, 0, 0); fill-opacity: 0;"/></g><g class="text"/></g><g class="trace scatter tracedff58601-cd37-4b71-aaf8-728136d16640" style="stroke-miterlimit: 2; opacity: 1;"><g class="fills"/><g class="errorbars"/><g class="lines"><path class="js-line" d="M162.01,80L164.79,80" style="vector-effect: non-scaling-stroke; fill: none; stroke: rgb(0, 0, 0); stroke-opacity: 0; stroke-width: 2px; opacity: 1;"/></g><g class="points"><path class="point" transform="translate(162.01,80)" d="M3,0A3,3 0 1,1 0,-3A3,3 0 0,1 3,0Z" style="opacity: 1; stroke-width: 0px; fill: rgb(0, 0, 0); fill-opacity: 0;"/><path class="point" transform="translate(164.79,80)" d="M3,0A3,3 0 1,1 0,-3A3,3 0 0,1 3,0Z" style="opacity: 1; stroke-width: 0px; fill: rgb(0, 0, 0); fill-opacity: 0;"/></g><g class="text"/></g><g class="trace scatter traceedaeb124-e72d-438c-a740-4354d1399608" style="stroke-miterlimit: 2; opacity: 1;"><g class="fills"/><g class="errorbars"/><g class="lines"><path class="js-line" d="M103.87,60L113.84,60" style="vector-effect: non-scaling-stroke; fill: none; stroke: rgb(0, 0, 0); stroke-opacity: 0; stroke-width: 2px; opacity: 1;"/></g><g class="points"><path class="point" transform="translate(103.87,60)" d="M3,0A3,3 0 1,1 0,-3A3,3 0 0,1 3,0Z" style="opacity: 1; stroke-width: 0px; fill: rgb(0, 0, 0); fill-opacity: 0;"/><path class="point" transform="translate(113.84,60)" d="M3,0A3,3 0 1,1 0,-3A3,3 0 0,1 3,0Z" style="opacity: 1; stroke-width: 0px; fill: rgb(0, 0, 0); fill-opacity: 0;"/></g><g class="text"/></g><g class="trace scatter trace0aa042bf-8645-4f07-b2ee-17d827fd339f" style="stroke-miterlimit: 2; opacity: 1;"><g class="fills"/><g class="errorbars"/><g class="lines"><path class="js-line" d="M36.65,40L67.31,40" style="vector-effect: non-scaling-stroke; fill: none; stroke: rgb(0, 0, 0); stroke-opacity: 0; stroke-width: 2px; opacity: 1;"/></g><g class="points"><path class="point" transform="translate(36.65,40)" d="M3,0A3,3 0 1,1 0,-3A3,3 0 0,1 3,0Z" style="opacity: 1; stroke-width: 0px; fill: rgb(0, 0, 0); fill-opacity: 0;"/><path class="point" transform="translate(67.31,40)" d="M3,0A3,3 0 1,1 0,-3A3,3 0 0,1 3,0Z" style="opacity: 1; stroke-width: 0px; fill: rgb(0, 0, 0); fill-opacity: 0;"/></g><g class="text"/></g></g></g><g class="overplot"/><path class="xlines-above crisp" d="M80,520.5H738" style="fill: none; stroke-width: 1px; stroke: rgb(22, 77, 128); stroke-opacity: 1;"/><path class="ylines-above crisp" d="M0,0" style="fill: none;"/><g class="overlines-above"/><g class="xaxislayer-above"><g class="xtick"><text text-anchor="middle" x="0" y="545" transform="translate(124.39,0)" style="font-family: 'Trebuchet MS'; font-size: 20px; fill: rgb(0, 0, 0); fill-opacity: 1; white-space: pre;">2000</text></g><g class="xtick"><text text-anchor="middle" x="0" y="545" transform="translate(268.71000000000004,0)" style="font-family: 'Trebuchet MS'; font-size: 20px; fill: rgb(0, 0, 0); fill-opacity: 1; white-space: pre;">2005</text></g><g class="xtick"><text text-anchor="middle" x="0" y="545" transform="translate(412.94,0)" style="font-family: 'Trebuchet MS'; font-size: 20px; fill: rgb(0, 0, 0); fill-opacity: 1; white-space: pre;">2010</text></g><g class="xtick"><text text-anchor="middle" x="0" y="545" transform="translate(557.1800000000001,0)" style="font-family: 'Trebuchet MS'; font-size: 20px; fill: rgb(0, 0, 0); fill-opacity: 1; white-space: pre;">2015</text></g><g class="xtick"><text text-anchor="middle" x="0" y="545" transform="translate(701.41,0)" style="font-family: 'Trebuchet MS'; font-size: 20px; fill: rgb(0, 0, 0); fill-opacity: 1; white-space: pre;">2020</text></g></g><g class="yaxislayer-above"><g class="ytick"><text text-anchor="start" x="739" y="4.199999999999999" transform="translate(0,500)" style="font-family: 'Trebuchet MS'; font-size: 12px; fill: rgb(0, 0, 0); fill-opacity: 1; white-space: pre;">Pose</text></g><g class="ytick"><text text-anchor="start" x="739" y="4.199999999999999" transform="translate(0,480)" style="font-family: 'Trebuchet MS'; font-size: 12px; fill: rgb(0, 0, 0); fill-opacity: 1; white-space: pre;">Comrade Detective</text></g><g class="ytick"><text text-anchor="start" x="739" y="4.199999999999999" transform="translate(0,460)" style="font-family: 'Trebuchet MS'; font-size: 12px; fill: rgb(0, 0, 0); fill-opacity: 1; white-space: pre;">Snowfall</text></g><g class="ytick"><text text-anchor="start" x="739" y="4.199999999999999" transform="translate(0,440)" style="font-family: 'Trebuchet MS'; font-size: 12px; fill: rgb(0, 0, 0); fill-opacity: 1; white-space: pre;">Glow</text></g><g class="ytick"><text text-anchor="start" x="739" y="4.199999999999999" transform="translate(0,420)" style="font-family: 'Trebuchet MS'; font-size: 12px; fill: rgb(0, 0, 0); fill-opacity: 1; white-space: pre;">This Is Us</text></g><g class="ytick"><text text-anchor="start" x="739" y="4.199999999999999" transform="translate(0,400)" style="font-family: 'Trebuchet MS'; font-size: 12px; fill: rgb(0, 0, 0); fill-opacity: 1; white-space: pre;">Stranger Things</text></g><g class="ytick"><text text-anchor="start" x="739" y="4.199999999999999" transform="translate(0,380)" style="font-family: 'Trebuchet MS'; font-size: 12px; fill: rgb(0, 0, 0); fill-opacity: 1; white-space: pre;">Dead of Summer</text></g><g class="ytick"><text text-anchor="start" x="739" y="4.199999999999999" transform="translate(0,360)" style="font-family: 'Trebuchet MS'; font-size: 12px; fill: rgb(0, 0, 0); fill-opacity: 1; white-space: pre;">Show Me a Hero</text></g><g class="ytick"><text text-anchor="start" x="739" y="4.199999999999999" transform="translate(0,340)" style="font-family: 'Trebuchet MS'; font-size: 12px; fill: rgb(0, 0, 0); fill-opacity: 1; white-space: pre;">Wet Hot American Summer: First Day of Camp</text></g><g class="ytick"><text text-anchor="start" x="739" y="4.199999999999999" transform="translate(0,320)" style="font-family: 'Trebuchet MS'; font-size: 12px; fill: rgb(0, 0, 0); fill-opacity: 1; white-space: pre;">Red Oaks</text></g><g class="ytick"><text text-anchor="start" x="739" y="4.199999999999999" transform="translate(0,300)" style="font-family: 'Trebuchet MS'; font-size: 12px; fill: rgb(0, 0, 0); fill-opacity: 1; white-space: pre;">Halt and Catch Fire</text></g><g class="ytick"><text text-anchor="start" x="739" y="4.199999999999999" transform="translate(0,280)" style="font-family: 'Trebuchet MS'; font-size: 12px; fill: rgb(0, 0, 0); fill-opacity: 1; white-space: pre;">The Goldbergs</text></g><g class="ytick"><text text-anchor="start" x="739" y="4.199999999999999" transform="translate(0,260)" style="font-family: 'Trebuchet MS'; font-size: 12px; fill: rgb(0, 0, 0); fill-opacity: 1; white-space: pre;">The Americans</text></g><g class="ytick"><text text-anchor="start" x="739" y="4.199999999999999" transform="translate(0,240)" style="font-family: 'Trebuchet MS'; font-size: 12px; fill: rgb(0, 0, 0); fill-opacity: 1; white-space: pre;">The Carrie Diaries</text></g><g class="ytick"><text text-anchor="start" x="739" y="4.199999999999999" transform="translate(0,220)" style="font-family: 'Trebuchet MS'; font-size: 12px; fill: rgb(0, 0, 0); fill-opacity: 1; white-space: pre;">Code Monkeys</text></g><g class="ytick"><text text-anchor="start" x="739" y="4.199999999999999" transform="translate(0,200)" style="font-family: 'Trebuchet MS'; font-size: 12px; fill: rgb(0, 0, 0); fill-opacity: 1; white-space: pre;">Everybody Hates Chris</text></g><g class="ytick"><text text-anchor="start" x="739" y="4.199999999999999" transform="translate(0,180)" style="font-family: 'Trebuchet MS'; font-size: 12px; fill: rgb(0, 0, 0); fill-opacity: 1; white-space: pre;">Garth Marenghi's Darkplace</text></g><g class="ytick"><text text-anchor="start" x="739" y="4.199999999999999" transform="translate(0,160)" style="font-family: 'Trebuchet MS'; font-size: 12px; fill: rgb(0, 0, 0); fill-opacity: 1; white-space: pre;">That ’80s show</text></g><g class="ytick"><text text-anchor="start" x="739" y="4.199999999999999" transform="translate(0,140)" style="font-family: 'Trebuchet MS'; font-size: 12px; fill: rgb(0, 0, 0); fill-opacity: 1; white-space: pre;">Freaks and Geeks</text></g></g><g class="overaxes-above"/></g></g><g class="polarlayer"/><g class="ternarylayer"/><g class="geolayer"/><g class="pielayer"/><g class="glimages"/><defs id="topdefs-4c8ab8"><g class="clips"/></defs><g class="layer-above"><g class="imagelayer"/><g class="shapelayer"><path data-index="0" fill-rule="evenodd" d="M655.84,508H701.35V492H655.84Z" clip-path="url(#clip4c8ab8xy)" style="opacity: 1; stroke: rgb(0, 0, 0); stroke-opacity: 0; fill: rgb(153, 25, 94); fill-opacity: 1; stroke-width: 0px;"/><path data-index="1" fill-rule="evenodd" d="M631.9,488H701.35V472H631.9Z" clip-path="url(#clip4c8ab8xy)" style="opacity: 1; stroke: rgb(0, 0, 0); stroke-opacity: 0; fill: rgb(153, 25, 94); fill-opacity: 1; stroke-width: 0px;"/><path data-index="2" fill-rule="evenodd" d="M629.53,468H701.35V452H629.53Z" clip-path="url(#clip4c8ab8xy)" style="opacity: 1; stroke: rgb(0, 0, 0); stroke-opacity: 0; fill: rgb(153, 25, 94); fill-opacity: 1; stroke-width: 0px;"/><path data-index="3" fill-rule="evenodd" d="M628.58,448H701.35V432H628.58Z" clip-path="url(#clip4c8ab8xy)" style="opacity: 1; stroke: rgb(0, 0, 0); stroke-opacity: 0; fill: rgb(153, 25, 94); fill-opacity: 1; stroke-width: 0px;"/><path data-index="4" fill-rule="evenodd" d="M606.78,428H701.35V412H606.78Z" clip-path="url(#clip4c8ab8xy)" style="opacity: 1; stroke: rgb(0, 0, 0); stroke-opacity: 0; fill: rgb(153, 25, 94); fill-opacity: 1; stroke-width: 0px;"/><path data-index="5" fill-rule="evenodd" d="M601.49,408H701.35V392H601.49Z" clip-path="url(#clip4c8ab8xy)" style="opacity: 1; stroke: rgb(0, 0, 0); stroke-opacity: 0; fill: rgb(153, 25, 94); fill-opacity: 1; stroke-width: 0px;"/><path data-index="6" fill-rule="evenodd" d="M600.15,388H605.14V372H600.15Z" clip-path="url(#clip4c8ab8xy)" style="opacity: 1; stroke: rgb(0, 0, 0); stroke-opacity: 0; fill: rgb(153, 25, 94); fill-opacity: 1; stroke-width: 0px;"/><path data-index="7" fill-rule="evenodd" d="M575.11,368H576.23V352H575.11Z" clip-path="url(#clip4c8ab8xy)" style="opacity: 1; stroke: rgb(0, 0, 0); stroke-opacity: 0; fill: rgb(153, 25, 94); fill-opacity: 1; stroke-width: 0px;"/><path data-index="8" fill-rule="evenodd" d="M573.8399999999999,348H578.28V332H573.8399999999999Z" clip-path="url(#clip4c8ab8xy)" style="opacity: 1; stroke: rgb(0, 0, 0); stroke-opacity: 0; fill: rgb(153, 25, 94); fill-opacity: 1; stroke-width: 0px;"/><path data-index="9" fill-rule="evenodd" d="M547.22,328H638V312H547.22Z" clip-path="url(#clip4c8ab8xy)" style="opacity: 1; stroke: rgb(0, 0, 0); stroke-opacity: 0; fill: rgb(153, 25, 94); fill-opacity: 1; stroke-width: 0px;"/><path data-index="10" fill-rule="evenodd" d="M540.27,308H637.52V292H540.27Z" clip-path="url(#clip4c8ab8xy)" style="opacity: 1; stroke: rgb(0, 0, 0); stroke-opacity: 0; fill: rgb(153, 25, 94); fill-opacity: 1; stroke-width: 0px;"/><path data-index="11" fill-rule="evenodd" d="M520.53,288H701.35V272H520.53Z" clip-path="url(#clip4c8ab8xy)" style="opacity: 1; stroke: rgb(0, 0, 0); stroke-opacity: 0; fill: rgb(153, 25, 94); fill-opacity: 1; stroke-width: 0px;"/><path data-index="12" fill-rule="evenodd" d="M501.8,268H655.53V252H501.8Z" clip-path="url(#clip4c8ab8xy)" style="opacity: 1; stroke: rgb(0, 0, 0); stroke-opacity: 0; fill: rgb(153, 25, 94); fill-opacity: 1; stroke-width: 0px;"/><path data-index="13" fill-rule="evenodd" d="M500.54,248H530.73V232H500.54Z" clip-path="url(#clip4c8ab8xy)" style="opacity: 1; stroke: rgb(0, 0, 0); stroke-opacity: 0; fill: rgb(153, 25, 94); fill-opacity: 1; stroke-width: 0px;"/><path data-index="14" fill-rule="evenodd" d="M341.46,228H373.3V212H341.46Z" clip-path="url(#clip4c8ab8xy)" style="opacity: 1; stroke: rgb(0, 0, 0); stroke-opacity: 0; fill: rgb(153, 25, 94); fill-opacity: 1; stroke-width: 0px;"/><path data-index="15" fill-rule="evenodd" d="M289.56,208H394.15V192H289.56Z" clip-path="url(#clip4c8ab8xy)" style="opacity: 1; stroke: rgb(0, 0, 0); stroke-opacity: 0; fill: rgb(153, 25, 94); fill-opacity: 1; stroke-width: 0px;"/><path data-index="16" fill-rule="evenodd" d="M242.01,188H244.79V172H242.01Z" clip-path="url(#clip4c8ab8xy)" style="opacity: 1; stroke: rgb(0, 0, 0); stroke-opacity: 0; fill: rgb(153, 25, 94); fill-opacity: 1; stroke-width: 0px;"/><path data-index="17" fill-rule="evenodd" d="M183.87,168H193.84V152H183.87Z" clip-path="url(#clip4c8ab8xy)" style="opacity: 1; stroke: rgb(0, 0, 0); stroke-opacity: 0; fill: rgb(153, 25, 94); fill-opacity: 1; stroke-width: 0px;"/><path data-index="18" fill-rule="evenodd" d="M116.65,148H147.31V132H116.65Z" clip-path="url(#clip4c8ab8xy)" style="opacity: 1; stroke: rgb(0, 0, 0); stroke-opacity: 0; fill: rgb(153, 25, 94); fill-opacity: 1; stroke-width: 0px;"/></g></g><g class="infolayer"><g class="g-gtitle"><text class="gtitle" x="500" y="50" text-anchor="middle" dy="0em" style="font-family: 'Open Sans', verdana, arial, sans-serif; font-size: 17px; fill: rgb(0, 0, 0); opacity: 1; font-weight: normal; white-space: pre;">TV Shows Set in the 1980s</text></g><g class="g-xtitle"/><g class="g-ytitle"/></g></svg>